HIERARCHY
ROOT Hips
{
	OFFSET 0.00000 0.00000 0.00000
	CHANNELS 6 Xposition Yposition Zposition Zrotation Yrotation Xrotation 
	JOINT LHipJoint
	{
		OFFSET 0 0 0
		CHANNELS 3 Zrotation Yrotation Xrotation
		JOINT LeftHip
		{
			OFFSET 1.34019 -1.87553 0.90315
			CHANNELS 3 Zrotation Yrotation Xrotation
			JOINT LeftKnee
			{
				OFFSET 2.55316 -7.01474 0.00000
				CHANNELS 3 Zrotation Yrotation Xrotation
				JOINT LeftAnkle
				{
					OFFSET 2.64657 -7.27139 0.00000
					CHANNELS 3 Zrotation Yrotation Xrotation
					JOINT LeftToe
					{
						OFFSET 0.24207 -0.66507 2.14489
						CHANNELS 3 Zrotation Yrotation Xrotation
						End Site
						{
							OFFSET 0.00000 -0.00000 1.12451
						}
					}
				}
			}
		}
	}
	JOINT RHipJoint
	{
		OFFSET 0 0 0
		CHANNELS 3 Zrotation Yrotation Xrotation
		JOINT RightHip
		{
			OFFSET -1.28320 -1.87553 0.90315
			CHANNELS 3 Zrotation Yrotation Xrotation
			JOINT RightKnee
			{
				OFFSET -2.60484 -7.15674 0.00000
				CHANNELS 3 Zrotation Yrotation Xrotation
				JOINT RightAnkle
				{
					OFFSET -2.60296 -7.15159 0.00000
					CHANNELS 3 Zrotation Yrotation Xrotation
					JOINT RightToe
					{
						OFFSET -0.31082 -0.85398 2.28998
						CHANNELS 3 Zrotation Yrotation Xrotation
						End Site
						{
							OFFSET -0.00000 -0.00000 1.21611
						}
					}
				}
			}
		}
	}
	JOINT lowerback
	{
		OFFSET 0 0 0
		CHANNELS 3 Zrotation Yrotation Xrotation
		JOINT Chest
		{
			OFFSET -0.00160 2.05581 -0.15156
			CHANNELS 3 Zrotation Yrotation Xrotation
			JOINT Chest2
			{
				OFFSET 0.04594 2.06326 -0.01617
				CHANNELS 3 Zrotation Yrotation Xrotation
				JOINT lowerneck
				{
					OFFSET 0 0 0
					CHANNELS 3 Zrotation Yrotation Xrotation
					JOINT Neck
					{
						OFFSET 0.03753 1.73883 0.26751
						CHANNELS 3 Zrotation Yrotation Xrotation
						JOINT Head
						{
							OFFSET -0.09795 1.76129 -0.31794
							CHANNELS 3 Zrotation Yrotation Xrotation
							End Site
							{
								OFFSET -0.03611 1.79987 -0.13846
							}
						}
					}
				}
				JOINT LeftCollar
				{
					OFFSET 0 0 0
					CHANNELS 3 Zrotation Yrotation Xrotation
					JOINT LeftShoulder
					{
						OFFSET 3.30667 1.29205 -0.22445
CHANNELS 3 Zrotation Xrotation Yrotation
						JOINT LeftElbow
						{
OFFSET 0 -4.927850 -0.000000
CHANNELS 3 Zrotation Xrotation Yrotation
							JOINT LeftWrist
							{
OFFSET 0 -3.440520 0.000000
CHANNELS 3 Zrotation Xrotation Yrotation
								JOINT lhand
								{
									OFFSET 0 0 0
CHANNELS 3 Zrotation Xrotation Yrotation
									JOINT LFingers
									{
OFFSET 0 -0.654330 0.000000
CHANNELS 3 Zrotation Xrotation Yrotation
										End Site
										{
OFFSET 0 -0.527530 0.000000
										}
									}
								}
								JOINT LThumb
								{
OFFSET 0 0.000000 0.000000
CHANNELS 3 Zrotation Xrotation Yrotation
									End Site
									{
OFFSET 0 -0.535590 0.535590
									}
								}
							}
						}
					}
				}
				JOINT RightCollar
				{
					OFFSET 0 0 0
					CHANNELS 3 Zrotation Yrotation Xrotation
					JOINT RightShoulder
					{
						OFFSET -3.20032 1.49783 -0.27688
CHANNELS 3 Zrotation Xrotation Yrotation
						JOINT RightElbow
						{
OFFSET 0 -5.091810 -0.000000
CHANNELS 3 Zrotation Xrotation Yrotation
							JOINT RightWrist
							{
OFFSET 0 -3.498650 -0.000000
CHANNELS 3 Zrotation Xrotation Yrotation
								JOINT rhand
								{
									OFFSET 0 0 0
CHANNELS 3 Zrotation Xrotation Yrotation
									JOINT RFingers
									{
OFFSET 0 -0.666410 0.000000
CHANNELS 3 Zrotation Xrotation Yrotation
										End Site
										{
OFFSET 0 -0.537280 0.000000
										}
									}
								}
								JOINT RThumb
								{
OFFSET 0 0.000000 0.000000
CHANNELS 3 Zrotation Xrotation Yrotation
									End Site
									{
OFFSET 0 -0.545480 0.545480
									}
								}
							}
						}
					}
				}
			}
		}
	}
}
MOTION
Frames: 11
Frame Time: 0.008333333333333333
3.926151 17.696386 31.252957 176.963164 175.787935 -182.300013 0.000000 0.000000 0.000000 -7.818018 5.210670 -18.853129 2.929850 10.580611 30.878130 -0.998537 17.456006 -8.531391 0.169290 -2.650735 -7.307858 0.000000 0.000000 0.000000 5.233123 -18.333256 -0.146413 -3.388927 -11.298086 33.293668 5.756240 -38.119619 -14.424584 -0.304833 -3.549851 9.813473 1.495058 -0.443521 10.906920 2.833822 -0.110018 -3.332438 2.218000 -0.041091 -9.716806 8.348420 3.229829 -19.040755 -6.463905 3.482130 18.269745 -3.137395 1.510765 9.144013 0.000000 0.000000 0.000000 2.534109 7.971989 6.768350 10.533674 -17.569634 1.632597 12.583350 3.600183 1.116382 0.000000 0.000000 0.000000 -7.125000 0.000000 0.000000 -10.851470 28.762778 -4.362640 0.000000 0.000000 0.000000 -14.345365 8.581756 -4.060483 -22.192520 -33.193099 -6.691348 -23.226111 -7.018080 4.188445 0.000000 0.000000 0.000000 7.125000 0.000000 0.000000 2.821699 34.525411 0.726221
4.359740 17.890065 32.302412 173.023165 174.586987 -182.764088 0.000000 0.000000 0.000000 -4.693463 4.452464 -14.349187 2.835589 10.424015 30.361139 -1.104893 18.545431 -10.736336 0.247848 -3.203270 -8.845199 0.000000 0.000000 0.000000 12.678150 -19.721580 -8.805644 -4.664110 -12.995207 39.350580 3.862140 -32.907962 -20.718090 -0.224698 -3.051104 8.420945 2.485541 -1.551267 11.604093 4.186474 -1.273392 -3.604070 3.386535 -0.605824 -10.398615 7.790392 2.842248 -18.262879 -5.641492 2.971859 17.947827 -2.825928 1.331531 8.830136 0.000000 0.000000 0.000000 6.638113 4.358524 -3.566851 13.553667 -22.092776 2.658083 14.698520 -3.645619 0.518969 0.000000 0.000000 0.000000 -7.125000 0.000000 0.000000 -9.275239 29.383458 -3.573585 0.000000 0.000000 0.000000 -7.343043 12.022972 -8.756011 -16.602197 -26.329079 -3.909865 -21.936131 -1.718941 3.838882 0.000000 0.000000 0.000000 7.125000 0.000000 0.000000 3.858972 34.098157 1.034176
4.555773 18.029629 33.198259 172.119666 175.611037 -182.671933 0.000000 0.000000 0.000000 -4.355620 3.991198 -8.979797 2.384606 9.624965 27.770603 -1.624050 22.119183 -12.184626 0.267844 -3.329398 -9.197188 0.000000 0.000000 0.000000 16.453998 -17.658199 -15.829408 -3.957694 -12.103235 36.099100 3.384716 -31.265826 -20.394930 -0.084445 -1.873539 5.156257 1.924041 -2.324538 12.611601 4.663785 -2.292750 -3.936500 4.518592 -1.022164 -11.289978 7.544723 2.939734 -16.568473 -5.515701 3.269276 17.757365 -2.708596 1.490743 8.477826 0.000000 0.000000 0.000000 11.247423 0.405981 -6.478226 15.635956 -25.024398 3.490623 15.698417 -7.609997 0.094018 0.000000 0.000000 0.000000 -7.125000 0.000000 0.000000 -8.534917 29.827378 -3.191071 0.000000 0.000000 0.000000 -3.417862 15.553981 -10.336670 -12.771904 -20.951934 -2.371276 -20.140168 4.229767 2.455242 0.000000 0.000000 0.000000 7.125000 0.000000 0.000000 5.218207 32.564773 1.594826
4.504224 18.047656 34.030659 172.217619 176.832302 -182.261856 0.000000 0.000000 0.000000 -4.223636 4.613004 -4.465451 1.943890 8.748091 25.010495 -2.029414 24.488024 -13.359126 0.266709 -3.322052 -9.176651 0.000000 0.000000 0.000000 17.237417 -14.491139 -19.542771 -2.334959 -9.530669 27.470491 3.475989 -31.129434 -17.359702 -0.002581 -0.318105 0.874000 0.630039 -3.381634 13.557305 5.461180 -3.820507 -4.099952 6.570034 -1.604690 -11.806817 8.159364 3.776027 -15.346988 -6.758961 4.603648 17.246798 -3.072051 2.055477 8.228621 0.000000 0.000000 0.000000 13.971966 -1.514739 -6.320013 17.721850 -27.799445 4.418847 17.197330 -10.891935 -0.322146 0.000000 0.000000 0.000000 -7.125000 0.000000 0.000000 -7.395615 30.272986 -2.678794 0.000000 0.000000 0.000000 -4.214563 17.512285 -10.014222 -11.949548 -19.728957 -2.085213 -19.510695 5.976710 2.706557 0.000000 0.000000 0.000000 7.125000 0.000000 0.000000 5.745915 32.813471 1.722696
4.135329 18.015100 34.875285 174.600688 175.943406 -179.482696 0.000000 0.000000 0.000000 -5.729006 4.494931 -3.414290 1.619644 8.024287 22.787815 -2.246607 25.497309 -12.534703 0.351749 -3.810634 -10.544450 0.000000 0.000000 0.000000 15.204056 -12.716580 -23.195999 -1.154801 -6.822141 19.189726 3.234490 -29.890685 -12.173196 -0.046303 1.387741 -3.816382 -2.239052 -4.381360 11.572076 5.669892 -5.682553 -5.065967 8.687728 -2.297736 -11.224021 8.503012 4.076124 -14.076197 -7.548605 5.166528 16.647834 -3.335334 2.294143 7.879362 0.000000 0.000000 0.000000 14.864263 -1.805508 -7.464222 18.749697 -29.106472 4.908466 17.230186 -11.315215 1.539181 0.000000 0.000000 0.000000 -7.125000 0.000000 0.000000 -7.235666 28.340375 -2.955194 0.000000 0.000000 0.000000 -6.710447 18.328025 -9.245758 -12.601893 -20.701084 -2.310651 -20.023639 3.454796 4.941316 0.000000 0.000000 0.000000 7.125000 0.000000 0.000000 5.527773 35.193797 1.336565
3.367932 17.888431 35.760547 175.672487 175.622242 -178.546194 0.000000 0.000000 0.000000 -3.870631 4.541798 -0.851140 1.470281 7.662529 21.693798 -2.418811 26.258622 -10.497966 0.429871 -4.207491 -11.661240 0.000000 0.000000 0.000000 15.427987 -11.083950 -23.931181 -1.201934 -6.955244 19.582965 2.570174 -27.121554 -7.743376 -0.131388 2.336272 -6.436004 -2.431477 -4.426089 11.331437 5.268522 -5.808212 -5.729536 8.410298 -2.314972 -11.837240 7.660028 3.637892 -13.864743 -7.279584 4.716622 16.749760 -3.160800 2.055375 7.807547 0.000000 0.000000 0.000000 13.818661 -0.718242 -8.844751 19.054053 -29.485791 5.057476 15.916574 -10.083453 1.220653 0.000000 0.000000 0.000000 -7.125000 0.000000 0.000000 -8.272607 28.670228 -3.320936 0.000000 0.000000 0.000000 -7.677033 18.693313 -8.633521 -13.211137 -21.595840 -2.530494 -20.669543 1.939915 5.286678 0.000000 0.000000 0.000000 7.125000 0.000000 0.000000 5.025714 35.590818 1.165621
2.341594 17.916093 36.619257 174.863182 175.080831 -178.379147 0.000000 0.000000 0.000000 0.885922 5.405616 -0.807841 1.754131 8.333847 23.732913 -2.451565 26.694449 -6.287876 0.450090 -4.304182 -11.934140 0.000000 0.000000 0.000000 19.488983 -11.497525 -25.129407 -2.005077 -8.876522 25.409883 2.297127 -25.809254 -6.971858 -0.003815 0.397254 -1.091481 -1.136803 -4.888394 12.098382 5.384593 -6.187693 -5.867007 8.001865 -2.550761 -12.525082 7.917104 4.107027 -15.298634 -7.811391 5.343536 17.292014 -3.299576 2.285703 8.318328 0.000000 0.000000 0.000000 9.914461 3.185144 -6.495029 19.195699 -29.661121 5.127350 16.581857 -7.921400 3.037171 0.000000 0.000000 0.000000 -7.125000 0.000000 0.000000 -7.640068 26.792888 -3.404221 0.000000 0.000000 0.000000 -9.160313 16.116413 -5.324870 -13.107102 -21.444007 -2.492349 -20.730339 2.256262 4.747073 0.000000 0.000000 0.000000 7.125000 0.000000 0.000000 4.925063 35.019823 1.210769
1.444157 18.041558 37.352693 176.581743 172.640851 -180.038159 0.000000 0.000000 0.000000 1.502731 5.085531 -3.497161 2.722740 10.232026 29.731528 -1.772489 22.994822 -5.343359 0.365636 -3.884325 -10.751442 0.000000 0.000000 0.000000 19.987001 -11.991822 -21.583803 -2.312650 -9.489055 27.337619 2.859140 -28.343972 -9.668139 -0.008905 -0.608410 1.671974 -2.901070 -5.561228 14.644931 4.957050 -7.485613 -5.482884 9.099857 -2.981110 -13.276128 8.612522 4.620573 -16.217954 -8.534391 6.008149 17.901325 -3.575181 2.548978 8.794278 0.000000 0.000000 0.000000 4.397055 6.513436 -3.254879 17.138389 -27.039840 4.150068 14.983607 -3.186734 4.776809 0.000000 0.000000 0.000000 -7.125000 0.000000 0.000000 -8.743307 25.031465 -4.270019 0.000000 0.000000 0.000000 -12.059155 13.191464 1.949765 -14.727966 -23.765809 -3.115561 -21.860790 -1.216360 4.142203 0.000000 0.000000 0.000000 7.125000 0.000000 0.000000 3.942919 34.420963 1.025745
0.978074 18.140615 37.931535 179.007154 172.051846 -179.569245 0.000000 0.000000 0.000000 -2.436913 2.943684 -5.753683 2.355293 9.569865 27.594817 -1.134823 18.926834 -11.695052 0.477869 -4.432980 -12.298050 0.000000 0.000000 0.000000 18.885716 -11.327031 -19.763234 -2.429831 -9.709168 28.040119 3.147549 -29.542495 -12.664713 -0.010992 -0.676045 1.857950 -3.453435 -5.346283 14.269213 4.253960 -7.385951 -5.547140 8.539612 -2.932756 -13.164782 8.545719 4.661822 -15.955569 -9.465684 6.314956 17.985903 -3.850815 2.600424 8.835423 0.000000 0.000000 0.000000 -0.381238 8.685683 -0.644302 15.153223 -24.359108 3.288856 15.590706 -1.913260 4.791545 0.000000 0.000000 0.000000 -7.125000 0.000000 0.000000 -8.289719 25.002819 -4.049444 0.000000 0.000000 0.000000 -16.055077 10.187588 8.588185 -17.631138 -27.682157 -4.376613 -22.582257 -5.814613 5.247276 0.000000 0.000000 0.000000 7.125000 0.000000 0.000000 3.430129 35.642736 0.789833
0.755003 18.169990 38.366917 180.414937 171.570544 -178.395893 0.000000 0.000000 0.000000 -6.154832 -0.312701 -8.180427 1.419065 7.533361 21.305673 -0.967230 18.574570 -14.800600 0.605566 -4.980574 -13.853374 0.000000 0.000000 0.000000 18.277695 -10.981356 -19.443639 -2.550433 -9.928974 28.747176 3.176651 -29.826508 -15.591712 -0.015780 -0.810033 2.226142 -3.764026 -4.994529 13.329908 4.215486 -6.964579 -6.274757 8.529739 -2.678063 -13.482184 8.352671 4.496808 -15.015357 -10.423203 6.463803 18.584114 -4.153321 2.581555 8.909740 0.000000 0.000000 0.000000 -3.937242 11.696308 1.528909 14.258711 -23.103367 2.928821 15.049769 -1.563421 4.299957 0.000000 0.000000 0.000000 -7.125000 0.000000 0.000000 -8.721667 25.517942 -4.159316 0.000000 0.000000 0.000000 -19.986161 8.116776 12.375706 -21.466423 -32.368642 -6.297856 -23.368242 -9.794488 5.818249 0.000000 0.000000 0.000000 7.125000 0.000000 0.000000 2.816655 36.301620 0.602972
0.726050 18.111629 38.668830 180.667282 171.879306 -177.676250 0.000000 0.000000 0.000000 -8.054305 -4.070088 -9.886842 1.064601 6.559746 18.417384 -0.692487 15.719787 -12.236593 0.874985 -5.963802 -16.679437 0.000000 0.000000 0.000000 18.156525 -10.973627 -19.998803 -2.836736 -10.425982 30.367420 2.871652 -28.898996 -17.692493 -0.020769 -0.930904 2.558577 -5.251350 -5.304460 13.020615 5.178475 -7.565893 -6.897814 10.618351 -2.746565 -13.618163 9.744141 5.315824 -13.111701 -11.950946 7.743884 18.276307 -4.774001 3.198493 8.713414 0.000000 0.000000 0.000000 -6.421893 13.958665 5.785457 13.529288 -22.057759 2.648762 14.158091 -0.313010 3.426373 0.000000 0.000000 0.000000 -7.125000 0.000000 0.000000 -9.449912 26.422336 -4.312813 0.000000 0.000000 0.000000 -22.226433 5.682826 15.697916 -24.846667 -36.046632 -8.199626 -23.576874 -12.402018 5.892697 0.000000 0.000000 0.000000 7.125000 0.000000 0.000000 2.646998 36.393972 0.560566
